<svg width="45" height="58" viewBox="0 0 45 58" fill="none" xmlns="http://www.w3.org/2000/svg">
<path d="M0 53V52.5975C6.95614 52.5975 7.18421 51.39 7.18421 36.9V23.1C7.18421 8.61 6.95614 7.4025 0 7.4025V7H17.7895V7.4025C10.8333 7.4025 10.6053 8.61 10.6053 23.1V31.3225L28.3947 24.365V23.1C28.3947 8.61 28.1667 7.4025 21.2105 7.4025V7H39V7.4025C32.0439 7.4025 31.8158 8.61 31.8158 23.1V36.9C31.8158 51.39 32.0439 52.5975 39 52.5975V53H21.2105V52.5975C28.1667 52.5975 28.3947 51.39 28.3947 36.9V24.7675L10.6053 31.725V36.9C10.6053 51.39 10.8333 52.5975 17.7895 52.5975V53H0Z" fill="white"/>
<path d="M7 58V57.5025C15.7307 57.5025 16.0169 56.0098 16.0169 38.098V21.0392C16.0169 3.12745 15.7307 1.6348 7 1.6348V1.13726H40.42C41.9228 1.13726 43.9266 0.781862 45 0V21.0392H44.4991C44.4991 6.2549 42.9962 1.6348 34.2655 1.6348H29.3277C20.597 1.6348 20.3107 3.12745 20.3107 21.0392V26.9387L26.0358 24.6642C32.1186 22.2476 35.7684 20.6127 35.7684 15.9216H36.2693V40.799H35.7684C35.7684 29.2132 34.838 24.3088 30.258 24.3088C28.9699 24.3088 27.467 24.7353 25.5348 25.4461L20.3107 27.5074V38.098C20.3107 56.0098 20.597 57.5025 29.3277 57.5025V58H7Z" fill="white"/>
</svg>
