<svg width="451" height="575" viewBox="0 0 451 575" fill="none" xmlns="http://www.w3.org/2000/svg">
<path d="M0.0361328 525.217V521.235C69.7464 521.235 72.032 509.287 72.032 365.914V229.369C72.032 85.9961 69.7464 74.0484 0.0361328 74.0484V70.0658H178.312V74.0484C108.601 74.0484 106.316 85.9961 106.316 229.369V310.727L284.591 241.886V229.369C284.591 85.9961 282.306 74.0484 212.595 74.0484V70.0658H390.871V74.0484C321.161 74.0484 318.875 85.9961 318.875 229.369V365.914C318.875 509.287 321.161 521.235 390.871 521.235V525.217H212.595V521.235C282.306 521.235 284.591 509.287 284.591 365.914V245.868L106.316 314.71V365.914C106.316 509.287 108.601 521.235 178.312 521.235V525.217H0.0361328Z" fill="black"/>
<path d="M70.1865 574.69V569.767C157.68 569.767 160.549 554.998 160.549 377.768V208.978C160.549 31.7484 157.68 16.9792 70.1865 16.9792V12.0562H405.101C420.162 12.0562 440.242 8.53973 451 0.803524V208.978H445.98C445.98 62.6933 430.919 16.9792 343.425 16.9792H293.941C206.447 16.9792 203.579 31.7484 203.579 208.978V267.351L260.952 244.846C321.91 220.934 358.486 204.758 358.486 158.341H363.506V404.494H358.486C358.486 289.857 349.163 241.33 303.264 241.33C290.355 241.33 275.295 245.549 255.932 252.582L203.579 272.978V377.768C203.579 554.998 206.447 569.767 293.941 569.767V574.69H70.1865Z" fill="black"/>
</svg>
